/* XPM */
static char *banner_small[] = {
/* columns rows colors chars-per-pixel */
"256 54 57 1 ",
"  c black",
". c #03362F",
"X c #04372E",
"o c #04392B",
"O c #04382D",
"+ c #042F37",
"@ c #07233E",
"# c #07243E",
"$ c #08223F",
"% c #042B3A",
"& c #042D38",
"* c #06283C",
"= c #033333",
"- c #033530",
"; c #033135",
": c #0F1842",
"> c #0C1B42",
", c #0B1D41",
"< c #0C1C41",
"1 c #092040",
"2 c #2B57FC",
"3 c #255FFA",
"4 c #285BFB",
"5 c #137DEF",
"6 c #1F68F7",
"7 c #1D6CF6",
"8 c #1874F3",
"9 c #1A70F4",
"0 c #1578F1",
"q c #2264F9",
"w c #07DE99",
"e c #06DC9D",
"r c #08E195",
"t c #02CFAD",
"y c #04D6A5",
"u c #05D9A1",
"i c #03D2A9",
"p c #01CCB1",
"a c #01C8B5",
"s c #01C5B9",
"d c #01C1BD",
"f c #059EDB",
"g c #079ADE",
"h c #02AECE",
"j c #01B6C7",
"k c #01BEC0",
"l c #01BAC4",
"z c #01B2CB",
"x c #03A6D5",
"c c #03AAD2",
"v c #04A2D8",
"b c #0B8EE6",
"n c #0F85EB",
"m c #0D89E8",
"M c #1181ED",
"N c #0A92E3",
"B c #0896E0",
/* pixels */
"::::::::222222224444444433333333<<<<<<<<666666667777777799999999111111110000000055555555MMMMMMMM########mmmmmmmmbbbbbbbbNNNNNNNN%%%**%%%ggggggggffffffffvvvvvvvv&&&&&&&&cccccccchhhhhhhhzzzzzzzz;;;;;;;;llllllllkkkkkkkkdddddddd---==---aaaaaaaapppppppptttttttt",
"::::::::222222224444444433333333<<<<<<<<666666667777777799999999111111110000000055555555MMMMMMMM########mmmmmmmmbbbbbbbbNNNNNNNN%%%%%%%%ggggggggffffffffvvvvvvvv&&&&&&&&cccccccchhhhhhhhzzzzzzzz;;;;;;;;llllllllkkkkkkkkdddddddd--------aaaaaaaapppppppptttttttt",
"::::::::222222224444444433333333<<<<<<<<666666667777777799999999111111110000000055555555MMMMMMMM########mmmmmmmmbbbbbbbbNNNNNNNN%%%%%%%%ggggggggffffffffvvvvvvvv&&&&&&&&cccccccchhhhhhhhzzzzzzzz;;;;;;;;llllllllkkkkkkkkdddddddd--------aaaaaaaapppppppptttttttt",
"::::::::222222224444444433333333<<<<<<<<666666667777777799999999111111110000000055555555MMMMMMMM########mmmmmmmmbbbbbbbbNNNNNNNN%%%%%%%%ggggggggffffffffvvvvvvvv&&&&&&&&cccccccchhhhhhhhzzzzzzzz;;;;;;;;llllllllkkkkkkkkdddddddd--------aaaaaaaapppppppptttttttt",
"::::::::222222224444444433333333<<<<<<<<666666667777777799999999111111110000000055555555MMMMMMMM########mmmmmmmmbbbbbbbbNNNNNNNN%%%%%%%%ggggggggffffffffvvvvvvvv&&&&&&&&cccccccchhhhhhhhzzzzzzzz;;;;;;;;llllllllkkkkkkkkdddddddd--------aaaaaaaapppppppptttttttt",
"::::::::222222224444444433333333<<<<<<<<666666667777777799999999111111110000000055555555MMMMMMMM########mmmmmmmmbbbbbbbbNNNNNNNN%%%*%%%%ggggggggffffffffvvvvvvvv&&&&&&&&cccccccchhhhhhhhzzzzzzzz;;;;;;;;llllllllkkkkkkkkdddddddd---=----aaaaaaaapppppppptttttttt",
"::::::::222222224444444433333333<<<<<<<<666666667777777799999999111111110000000055555555MMMMMMMM########mmmmmmmmbbbbbbbbNNNNNNNN%%%%**%%ggggggggffffffffvvvvvvvv&&&&&&&&cccccccchhhhhhhhzzzzzzzz;;;;;;;;llllllllkkkkkkkkdddddddd----==--aaaaaaaapppppppptttttttt",
"::::::::222222224444444433333333<<<<<<<<666666667777777799999999111111110000000055555555MMMMMMMM########mmmmmmmmbbbbbbbbNNNNNNNN%%%%%%%%ggggggggffffffffvvvvvvvv&&&&&&&&cccccccchhhhhhhhzzzzzzzz;;;;;;;;llllllllkkkkkkkkdddddddd--------aaaaaaaapppppppptttttttt",
"::::::::222222224444444433333333<<<<<<<<666666667777777799999999111111110000000055555555MMMMMMMM########mmmmmmmmbbbbbbbbNNNNNNNN%%%%%%%%ggggggggffffffffvvvvvvvv&&&&&&&&cccccccchhhhhhhhzzzzzzzz;;;;;;;;llllllllkkkkkkkkdddddddd--------aaaaaaaapppppppptttttttt",
"::::::::22222222                <<<<<<<<66666666        999999991111111100000000                ########mmmmmmmm                *%%%%%%%gggggggg                &&&&&&&&        hhhhhhhh        ;;;;;;;;llllllll        dddddddd=-------aaaaaaaa                ",
"::::::::22222222                <<<<<<<<66666666        999999991111111100000000                ########mmmmmmmm                *%%%%%%*gggggggg                &&&&&&&&        hhhhhhhh        ;;;;;;;;llllllll        dddddddd=------=aaaaaaaa                ",
"::::::::22222222                <<<<<<<<66666666        999999991111111100000000                ########mmmmmmmm                %%%%%%%*gggggggg                &&&&&&&&        hhhhhhhh        ;;;;;;;;llllllll        dddddddd-------=aaaaaaaa                ",
"::::::::22222222                <<<<<<<<66666666        999999991111111100000000                ########mmmmmmmm                %%%%%%%%gggggggg                &&&&&&&&        hhhhhhhh        ;;;;;;;;llllllll        dddddddd--------aaaaaaaa                ",
"::::::::22222222                <<<<<<<<66666666        999999991111111100000000                ########mmmmmmmm                %%%%%%%%gggggggg                &&&&&&&&        hhhhhhhh        ;;;;;;;;llllllll        dddddddd--------aaaaaaaa                ",
"::::::::22222222                <<<<<<<<66666666        999999991111111100000000                ########mmmmmmmm                %%%%%%%%gggggggg                &&&&&&&&        hhhhhhhh        ;;;;;;;;llllllll        dddddddd--------aaaaaaaa                ",
"::::::::22222222                <<<<<<<<66666666        999999991111111100000000                ########mmmmmmmm                %%%%%%%%gggggggg                &&&&&&&&        hhhhhhhh        ;;;;;;;;llllllll        dddddddd--------aaaaaaaa                ",
"::::::::22222222                <<<<<<<<66666666        999999991111111100000000                ########mmmmmmmm                %%%**%%%gggggggg                &&&&&&&&        hhhhhhhh        ;;;;;;;;llllllll        dddddddd--------aaaaaaaa                ",
"::::::::22222222                <<<<<<<<66666666        999999991111111100000000                ########mmmmmmmm                %%%%%%%%gggggggg                &&&&&&&&        hhhhhhhh        ;;;;;;;;llllllll        dddddddd--------aaaaaaaa                ",
",,::::,,qqqqqqqq,,,,,,,,,,,,,,,,1111,,,,888888880000000055555555@@@@@@@@nnnnnnnnmmmmmmmmbbbbbbbb********BBBBBBBBggggggggffffffff&&&&%%%%xxxxxxxxcccccccchhhhhhhh;;;;;;;;;;;;;;;;llllllll================ssssssss--------ppppppppXXXXXXXXiiiiiiiiyyyyyyyyuuuuuuuu",
",,::::,,qqqqqqqq,,,,,,,,,,,,,,,,1111,,,,888888880000000055555555@@@@@@@@nnnnnnnnmmmmmmmmbbbbbbbb********BBBBBBBBggggggggffffffff&&&&%%%%xxxxxxxxcccccccchhhhhhhh;;;;;;;;;;;;;;;;llllllll================ssssssss--------ppppppppXXXXXXXXiiiiiiiiyyyyyyyyuuuuuuuu",
",::::::,qqqqqqqq,,,,,,,,,,,,,,,,,,,11111888888880000000055555555@@@@@@@@nnnnnnnnmmmmmmmmbbbbbbbb********BBBBBBBBggggggggffffffff&&&&&&&&xxxxxxxxcccccccchhhhhhhh;;;;;;;;;;;;;;;;llllllll================ssssssss--------ppppppppXXXXXXXXiiiiiiiiyyyyyyyyuuuuuuuu",
",:::::,,qqqqqqqq,,,,,,,,,,,,,,,,,,111111888888880000000055555555@@@@@@@@nnnnnnnnmmmmmmmmbbbbbbbb********BBBBBBBBggggggggffffffff&&&%&&&&xxxxxxxxcccccccchhhhhhhh+;;;;;;;;;;;;;;;llllllll================ssssssss--------ppppppppXXXXXXXXiiiiiiiiyyyyyyyyuuuuuuuu",
"::::::::qqqqqqqq,,,,,,,,,,,,,,,,,,,,11,1888888880000000055555555@@@@@@@@nnnnnnnnmmmmmmmmbbbbbbbb********BBBBBBBBggggggggffffffff&&&&%%&&xxxxxxxxcccccccchhhhhhhh;;;;;;;;;;;;;;;;llllllll================ssssssss--------ppppppppXXXXXXXXiiiiiiiiyyyyyyyyuuuuuuuu",
"::::::::qqqqqqqq,,,,,,,,,,,,,,,,,,,,,,,,888888880000000055555555@@@@@@@@nnnnnnnnmmmmmmmmbbbbbbbb********BBBBBBBBggggggggffffffff&&&&&&&&xxxxxxxxcccccccchhhhhhhh;;;;;;;;;;;;;;;;llllllll================ssssssss--------ppppppppXXXXXXXXiiiiiiiiyyyyyyyyuuuuuuuu",
",,::::::qqqqqqqq,,,,,,,,,,,,,,,,111111,,888888880000000055555555@@@@@@@@nnnnnnnnmmmmmmmmbbbbbbbb********BBBBBBBBggggggggffffffff&&&&&&&&xxxxxxxxcccccccchhhhhhhh;;;;;;;;;;;;;;;;llllllll================ssssssss--------ppppppppXXXXXXXXiiiiiiiiyyyyyyyyuuuuuuuu",
",,::::::qqqqqqqq,,,,,,,,,,,,,,,,1,1111,,888888880000000055555555@@@@@@@@nnnnnnnnmmmmmmmmbbbbbbbb********BBBBBBBBggggggggffffffff%&&&&&&&xxxxxxxxcccccccchhhhhhhh;;;;;;;;;;;;;;;;llllllll================ssssssss--------ppppppppXXXXXXXXiiiiiiiiyyyyyyyyuuuuuuuu",
",,,:,,::qqqqqqqq,,,,,,,,,,,,,,,,,,,,,,,,888888880000000055555555@@@@@@@@nnnnnnnnmmmmmmmmbbbbbbbb********BBBBBBBBggggggggffffffff%&&&&&&%xxxxxxxxcccccccchhhhhhhh++;;;;;+;;;;;;;;llllllll================ssssssss--------ppppppppXXXXXXXXiiiiiiiiyyyyyyyyuuuuuuuu",
",,,,,,,,qqqqqqqq,,,,,,,,,,,,,,,,,,,,,,,,88888888        55555555@@@@@@@@nnnnnnnn                ********BBBBBBBB                &&&&&&&%xxxxxxxx                ;+;;;;;+;;;;;;;;llllllll================ssssssss--------ppppppppXXXXXXXXiiiiiiii                ",
",,,,,,,:qqqqqqqq,,,,,,,,,,,,,,,,,,,,,,,,88888888        55555555@@@@@@@@nnnnnnnn                ********BBBBBBBB                &&&&&&&&xxxxxxxx                ;;;+;;;;;;;;;;;;llllllll================ssssssss--------ppppppppXXXXXXXXiiiiiiii                ",
",,,:,,::qqqqqqqq,,,,,,,,,,,,,,,,11,,,,,,88888888        55555555@@@@@@@@nnnnnnnn                ********BBBBBBBB                &&&&&&&&xxxxxxxx                ;;;;;;;;;;;;;;;;llllllll================ssssssss--------ppppppppXXXXXXXXiiiiiiii                ",
",,::::::qqqqqqqq,,,,,,,,,,,,,,,,1111,,,,88888888        55555555@@@@@@@@nnnnnnnn                ********BBBBBBBB                &&&&&&&&xxxxxxxx                ;;;;;;;;;;;;;;;;llllllll================ssssssss--------ppppppppXXXXXXXXiiiiiiii                ",
":,::::::qqqqqqqq,,,,,,,,,,,,,,,,11111,,,88888888        55555555@@@@@@@@nnnnnnnn                ********BBBBBBBB                &&&&&&&&xxxxxxxx                ;;;;;;;;;;;;;;;;llllllll================ssssssss--------ppppppppXXXXXXXXiiiiiiii                ",
"::::::::qqqqqqqq,,,,,,,,,,,,,,,,,,,,,,,188888888        55555555@@@@####nnnnnnnn                ********BBBBBBBB                &&&&&&&&xxxxxxxx                ;;;;;;;;;;;;;;;;llllllll================ssssssss--------ppppppppXXXXXXXXiiiiiiii                ",
"::::::::qqqqqqqq,,,,,,,,,,,,,,,,,,,,,,,,88888888        55555555@@@@@###nnnnnnnn                ********BBBBBBBB                &&&&&&&&xxxxxxxx                ;;;;;;;;;;;;;;;;llllllll================ssssssss--------ppppppppXXXXXXXXiiiiiiii                ",
",:::::,,qqqqqqqq,,,,,,,,,,,,,,,,11,1,,,,88888888        55555555@@@@@@##nnnnnnnn                ********BBBBBBBB                &&&&&&&&xxxxxxxx                ;;;;;;;;;;;;;;;;llllllll================ssssssss--------ppppppppXXXXXXXXiiiiiiii                ",
",:::::,,qqqqqqqq,,,,,,,,,,,,,,,,1111,,,,88888888        55555555@@@@@@##nnnnnnnn                ********BBBBBBBB                &&&&&&&&xxxxxxxx                ;;;;;;;;;;;;;;;;llllllll================ssssssss--------ppppppppXXXXXXXXiiiiiiii                ",
",,,,,,,,999999998888888800000000$$$$$$$$MMMMMMMM########mmmmmmmm#######*NNNNNNNN%%%%%%%%%%%%%%%%%%%%%%%%vvvvvvvv&&&&&&&&&&&&&&&&++++++++zzzzzzzzjjjjjjjjllllllll========ddddddddssssssssaaaaaaaa........ttttttttOOOOOOOOyyyyyyyyooooooooeeeeeeeewwwwwwwwrrrrrrrr",
",,,,,,,,999999998888888800000000$$$$$$$$MMMMMMMM########mmmmmmmm######**NNNNNNNN%%%%%%%%%%%%%%%%%%%%%%%%vvvvvvvv&&&&&&&&&&&&&&&&++++++++zzzzzzzzjjjjjjjjllllllll========ddddddddssssssssaaaaaaaa........ttttttttOOOOOOOOyyyyyyyyooooooooeeeeeeeewwwwwwwwrrrrrrrr",
",,,,,,,,999999998888888800000000$$$$$$$$MMMMMMMM########mmmmmmmm**######NNNNNNNN%%%%%%%%%%%%%%%%%%%%%%%%vvvvvvvv&&&&&&&&&&&&&&&&++++++++zzzzzzzzjjjjjjjjllllllll========ddddddddssssssssaaaaaaaa........ttttttttOOOOOOOOyyyyyyyyooooooooeeeeeeeewwwwwwwwrrrrrrrr",
",,,,,,,,999999998888888800000000$$$$$$$$MMMMMMMM########mmmmmmmm*#######NNNNNNNN%%%%%%%%%%%%*%%%%%%%%%%%vvvvvvvv&&&&&&&&&&&&&&&&++++++++zzzzzzzzjjjjjjjjllllllll========ddddddddssssssssaaaaaaaa........ttttttttOOOOOOOOyyyyyyyyooooooooeeeeeeeewwwwwwwwrrrrrrrr",
",,,,,,,,999999998888888800000000$$$$$$$$MMMMMMMM########mmmmmmmm**######NNNNNNNN%%%%%%%*%%%%%%%%%%%%%%%%vvvvvvvv&&&&&&&&&&&&&&&&++++++++zzzzzzzzjjjjjjjjllllllll========ddddddddssssssssaaaaaaaa........ttttttttOOOOOOOOyyyyyyyyooooooooeeeeeeeewwwwwwwwrrrrrrrr",
",,,,,,,,999999998888888800000000$$$$$$$$MMMMMMMM########mmmmmmmm**######NNNNNNNN%%%%%%%%%%%%*%%%%%%%%%%%vvvvvvvv&&&&&&&&&&&&&&&&++++++++zzzzzzzzjjjjjjjjllllllll========ddddddddssssssssaaaaaaaa........ttttttttOOOOOOOOyyyyyyyyooooooooeeeeeeeewwwwwwwwrrrrrrrr",
",,,,,,,,999999998888888800000000$$$$$$$$MMMMMMMM########mmmmmmmm***#****NNNNNNNN%%%%%%%%%%***%%%%%%%%%%%vvvvvvvv&&&&&&&&&&&&&&&&++++++++zzzzzzzzjjjjjjjjllllllll========ddddddddssssssssaaaaaaaa........ttttttttOOOOOOOOyyyyyyyyooooooooeeeeeeeewwwwwwwwrrrrrrrr",
",,,,,,,,999999998888888800000000$$$$$$$$MMMMMMMM########mmmmmmmm********NNNNNNNN%%%%%%%%%%%%%%%%%%%%%%%%vvvvvvvv&&&&&&&&&&&&&&&&++++++++zzzzzzzzjjjjjjjjllllllll========ddddddddssssssssaaaaaaaa........ttttttttOOOOOOOOyyyyyyyyooooooooeeeeeeeewwwwwwwwrrrrrrrr",
",,,,,,,,999999998888888800000000$$$$$$$$MMMMMMMM########mmmmmmmm*******#NNNNNNNN%*%%%%%%%%%%%%%%%%%%%%%%vvvvvvvv&&&&&&&&&&&&&&&&++++++++zzzzzzzzjjjjjjjjllllllll========ddddddddssssssssaaaaaaaa........ttttttttOOOOOOOOyyyyyyyyooooooooeeeeeeeewwwwwwwwrrrrrrrr",
",,,,,,,,                        $$$$$$$$        ########        ******##        %%%%%%**%%%%%%%%%%%%%%%%        &&&&&&&&&&&&&&&&++++++++                        ========                        ........        OOOOOOOO        oooooooo                        ",
",,,,,,,,                        $$$$$$$$        ########        ****####        %%%%%%*%%%%%%%%%%%%%%%%%        &&&&&&&&&&&&&&&&++++++++                        ========                        ........        OOOOOOOO        oooooooo                        ",
",,,,,,,,                        $$$$$$$$        ########        #*######        %%%%%%%%%%%**%%%%%%%%%%%        &&&&&&&&&&&&&&&&++++++++                        ========                        ........        OOOOOOOO        oooooooo                        ",
",,,,,,,,                        $$$$$$$$        ########        ####****        %%%%%%%%%%%%%%%%%%%%%%%%        &&&&&&&&&&&&&&&&++++++++                        ========                        ........        OOOOOOOO        oooooooo                        ",
",,,,,,,,                        $$$$$$$$        ########        ####****        %%%%%%%%%%%%%%%*%%%%%%%%        &&&&&&&&&&&&&&&&++++++++                        ========                        ........        OOOOOOOO        oooooooo                        ",
",,,,,,,,                        $$$$$$$$        ########        **##**##        %%%%%%%%%%%%%%%%%%%%%%%%        &&&&&&&&&&&&&&&&++++++++                        ========                        ........        OOOOOOOO        oooooooo                        ",
",,,,,,,,                        $$$$$$$$        ########        **######        %%%%%**%%%**%%%%%%%%%%%%        &&&&&&&&&&&&&&&&++++++++                        ========                        ........        OOOOOOOO        oooooooo                        ",
",,,,,,,,                        $$$$$$$$        ########        *****###        %%%%%%%%%%%%%%%%%%%%%%%%        &&&&&&&&&&&&&&&&++++++++                        ========                        ........        OOOOOOOO        oooooooo                        ",
",,,,,,,,                        $$$$$$$$        ########        ****####        %%%%%%%%%%%%%%**%%%%%%%%        &&&&&&&&&&&&&&&&++++++++                        ========                        ........        OOOOOOOO        oooooooo                        "
};
